<svg width="478" height="94" viewBox="0 0 478 94" fill="none" xmlns="http://www.w3.org/2000/svg">
<mask id="mask0" mask-type="alpha" maskUnits="userSpaceOnUse" x="0" y="0" width="74" height="72">
<rect x="0.5" y="0.5" width="72.6364" height="71" fill="#C4C4C4" stroke="#61FFD9"/>
</mask>
<g mask="url(#mask0)">
<line x1="-9.96994" y1="40.9098" x2="45.0007" y2="-14.0608" stroke="#61FFD9" stroke-width="12"/>
<line x1="-9.96994" y1="83.3028" x2="80.8483" y2="-7.51541" stroke="#61FFD9" stroke-width="12"/>
<line x1="14.5756" y1="101.303" x2="105.394" y2="10.4846" stroke="#61FFD9" stroke-width="12"/>
</g>
<path d="M82.0182 65.28C82.0182 68.0533 81.5675 70.5927 80.6662 72.898C79.7649 75.186 78.4909 77.1533 76.8442 78.8C75.2149 80.4467 73.2475 81.7293 70.9422 82.648C68.6542 83.5493 66.1062 84 63.2982 84H49.1542V46.56H63.2982C66.1062 46.56 68.6542 47.0193 70.9422 47.938C73.2475 48.8393 75.2149 50.1133 76.8442 51.76C78.4909 53.4067 79.7649 55.3827 80.6662 57.688C81.5675 59.976 82.0182 62.5067 82.0182 65.28ZM75.8042 65.28C75.8042 63.1307 75.5095 61.198 74.9202 59.482C74.3482 57.766 73.5162 56.3187 72.4242 55.14C71.3495 53.9613 70.0409 53.06 68.4982 52.436C66.9555 51.7947 65.2222 51.474 63.2982 51.474H55.2642V79.086H63.2982C65.2222 79.086 66.9555 78.774 68.4982 78.15C70.0409 77.526 71.3495 76.6247 72.4242 75.446C73.5162 74.25 74.3482 72.8027 74.9202 71.104C75.5095 69.388 75.8042 67.4467 75.8042 65.28ZM104.861 67.75C104.861 66.814 104.723 65.9473 104.445 65.15C104.185 64.3353 103.795 63.6333 103.275 63.044C102.755 62.4373 102.105 61.9693 101.325 61.64C100.563 61.2933 99.6787 61.12 98.6733 61.12C96.6453 61.12 95.0507 61.7007 93.8893 62.862C92.728 64.0233 91.9913 65.6527 91.6793 67.75H104.861ZM91.5233 71.182C91.5927 72.69 91.8267 73.9987 92.2253 75.108C92.624 76.2 93.1527 77.11 93.8113 77.838C94.4873 78.566 95.2847 79.112 96.2033 79.476C97.1393 79.8227 98.1793 79.996 99.3233 79.996C100.415 79.996 101.36 79.8747 102.157 79.632C102.955 79.372 103.648 79.0947 104.237 78.8C104.827 78.488 105.329 78.2107 105.745 77.968C106.161 77.708 106.543 77.578 106.889 77.578C107.34 77.578 107.687 77.7513 107.929 78.098L109.515 80.152C108.857 80.932 108.111 81.5907 107.279 82.128C106.447 82.6653 105.563 83.1073 104.627 83.454C103.691 83.7833 102.729 84.0173 101.741 84.156C100.753 84.312 99.7913 84.39 98.8553 84.39C97.018 84.39 95.3107 84.0867 93.7333 83.48C92.1733 82.856 90.8127 81.946 89.6513 80.75C88.5073 79.554 87.606 78.072 86.9473 76.304C86.306 74.536 85.9853 72.4993 85.9853 70.194C85.9853 68.3567 86.2713 66.6407 86.8433 65.046C87.4327 63.4513 88.2647 62.0647 89.3393 60.886C90.4313 59.7073 91.7487 58.78 93.2913 58.104C94.8513 57.4107 96.6107 57.064 98.5693 57.064C100.199 57.064 101.707 57.3327 103.093 57.87C104.48 58.39 105.676 59.1613 106.681 60.184C107.687 61.2067 108.467 62.4633 109.021 63.954C109.593 65.4273 109.879 67.1087 109.879 68.998C109.879 69.8647 109.784 70.4453 109.593 70.74C109.403 71.0347 109.056 71.182 108.553 71.182H91.5233ZM131.076 62.29C130.938 62.5327 130.782 62.706 130.608 62.81C130.435 62.914 130.218 62.966 129.958 62.966C129.664 62.966 129.343 62.8793 128.996 62.706C128.65 62.5153 128.242 62.3073 127.774 62.082C127.306 61.8567 126.752 61.6573 126.11 61.484C125.486 61.2933 124.75 61.198 123.9 61.198C123.207 61.198 122.574 61.2847 122.002 61.458C121.448 61.614 120.971 61.848 120.572 62.16C120.191 62.4547 119.896 62.81 119.688 63.226C119.48 63.6247 119.376 64.058 119.376 64.526C119.376 65.15 119.567 65.67 119.948 66.086C120.33 66.502 120.832 66.866 121.456 67.178C122.08 67.4727 122.791 67.7413 123.588 67.984C124.386 68.2267 125.2 68.4867 126.032 68.764C126.864 69.0413 127.679 69.362 128.476 69.726C129.274 70.09 129.984 70.5407 130.608 71.078C131.232 71.598 131.735 72.2393 132.116 73.002C132.498 73.7473 132.688 74.6573 132.688 75.732C132.688 76.98 132.463 78.1327 132.012 79.19C131.562 80.2473 130.903 81.166 130.036 81.946C129.17 82.726 128.086 83.3327 126.786 83.766C125.504 84.1993 124.03 84.416 122.366 84.416C121.448 84.416 120.555 84.3293 119.688 84.156C118.839 84 118.024 83.7833 117.244 83.506C116.482 83.2113 115.762 82.8647 115.086 82.466C114.428 82.0673 113.838 81.634 113.318 81.166L114.618 79.034C114.774 78.774 114.965 78.5747 115.19 78.436C115.433 78.28 115.728 78.202 116.074 78.202C116.438 78.202 116.794 78.3233 117.14 78.566C117.504 78.7913 117.92 79.0427 118.388 79.32C118.874 79.5973 119.454 79.8573 120.13 80.1C120.806 80.3253 121.647 80.438 122.652 80.438C123.484 80.438 124.204 80.3427 124.81 80.152C125.417 79.944 125.92 79.6667 126.318 79.32C126.717 78.9733 127.012 78.5833 127.202 78.15C127.393 77.6993 127.488 77.2227 127.488 76.72C127.488 76.044 127.298 75.4893 126.916 75.056C126.535 74.6227 126.024 74.25 125.382 73.938C124.758 73.626 124.039 73.3487 123.224 73.106C122.427 72.8633 121.612 72.6033 120.78 72.326C119.948 72.0487 119.125 71.728 118.31 71.364C117.513 71 116.794 70.5407 116.152 69.986C115.528 69.414 115.026 68.7293 114.644 67.932C114.263 67.1173 114.072 66.1293 114.072 64.968C114.072 63.9107 114.28 62.9053 114.696 61.952C115.13 60.9987 115.754 60.158 116.568 59.43C117.4 58.702 118.414 58.13 119.61 57.714C120.824 57.2807 122.219 57.064 123.796 57.064C125.582 57.064 127.202 57.35 128.658 57.922C130.114 58.494 131.336 59.274 132.324 60.262L131.076 62.29ZM143.916 57.48V84H138.326V57.48H143.916ZM144.852 49.472C144.852 49.9747 144.748 50.4513 144.54 50.902C144.349 51.3527 144.08 51.7513 143.734 52.098C143.387 52.4273 142.98 52.696 142.512 52.904C142.061 53.0947 141.576 53.19 141.056 53.19C140.553 53.19 140.076 53.0947 139.626 52.904C139.192 52.696 138.811 52.4273 138.482 52.098C138.152 51.7513 137.884 51.3527 137.676 50.902C137.485 50.4513 137.39 49.9747 137.39 49.472C137.39 48.952 137.485 48.4667 137.676 48.016C137.884 47.5653 138.152 47.1753 138.482 46.846C138.811 46.4993 139.192 46.2307 139.626 46.04C140.076 45.832 140.553 45.728 141.056 45.728C141.576 45.728 142.061 45.832 142.512 46.04C142.98 46.2307 143.387 46.4993 143.734 46.846C144.08 47.1753 144.349 47.5653 144.54 48.016C144.748 48.4667 144.852 48.952 144.852 49.472ZM160.553 70.506C162.287 70.506 163.587 70.064 164.453 69.18C165.32 68.296 165.753 67.1433 165.753 65.722C165.753 64.266 165.32 63.1133 164.453 62.264C163.587 61.4147 162.287 60.99 160.553 60.99C158.837 60.99 157.537 61.4147 156.653 62.264C155.787 63.1133 155.353 64.266 155.353 65.722C155.353 66.4153 155.466 67.0567 155.691 67.646C155.917 68.2353 156.246 68.7467 156.679 69.18C157.113 69.596 157.65 69.9253 158.291 70.168C158.95 70.3933 159.704 70.506 160.553 70.506ZM168.327 85.3C168.327 84.7107 168.154 84.2427 167.807 83.896C167.478 83.532 167.027 83.2547 166.455 83.064C165.883 82.856 165.216 82.7087 164.453 82.622C163.691 82.518 162.876 82.4487 162.009 82.414C161.16 82.362 160.285 82.3187 159.383 82.284C158.499 82.232 157.641 82.1453 156.809 82.024C155.977 82.4573 155.293 82.9773 154.755 83.584C154.235 84.1907 153.975 84.8927 153.975 85.69C153.975 86.21 154.105 86.6953 154.365 87.146C154.643 87.5967 155.059 87.9867 155.613 88.316C156.185 88.6453 156.905 88.9053 157.771 89.096C158.655 89.2867 159.713 89.382 160.943 89.382C163.405 89.382 165.251 89.0007 166.481 88.238C167.712 87.4753 168.327 86.496 168.327 85.3ZM173.943 58.442V60.522C173.943 61.2153 173.527 61.64 172.695 61.796L170.043 62.238C170.494 63.2433 170.719 64.3613 170.719 65.592C170.719 66.892 170.459 68.0707 169.939 69.128C169.437 70.1853 168.735 71.0867 167.833 71.832C166.932 72.5773 165.857 73.1493 164.609 73.548C163.361 73.9467 162.009 74.146 160.553 74.146C159.999 74.146 159.453 74.12 158.915 74.068C158.395 73.9987 157.884 73.912 157.381 73.808C156.879 74.1027 156.506 74.4147 156.263 74.744C156.021 75.0733 155.899 75.4113 155.899 75.758C155.899 76.33 156.151 76.7547 156.653 77.032C157.156 77.3093 157.815 77.5087 158.629 77.63C159.461 77.7513 160.406 77.8293 161.463 77.864C162.521 77.8987 163.595 77.9593 164.687 78.046C165.779 78.1327 166.854 78.28 167.911 78.488C168.969 78.6787 169.905 79.008 170.719 79.476C171.551 79.9267 172.219 80.542 172.721 81.322C173.224 82.102 173.475 83.116 173.475 84.364C173.475 85.508 173.189 86.626 172.617 87.718C172.045 88.81 171.213 89.7807 170.121 90.63C169.047 91.4793 167.729 92.1553 166.169 92.658C164.609 93.178 162.833 93.438 160.839 93.438C158.863 93.438 157.139 93.2473 155.665 92.866C154.209 92.4847 152.987 91.9647 151.999 91.306C151.029 90.6647 150.301 89.9193 149.815 89.07C149.347 88.2207 149.113 87.3367 149.113 86.418C149.113 85.17 149.503 84.104 150.283 83.22C151.081 82.336 152.155 81.6427 153.507 81.14C152.779 80.7933 152.19 80.3167 151.739 79.71C151.306 79.1033 151.089 78.306 151.089 77.318C151.089 76.538 151.375 75.7233 151.947 74.874C152.519 74.0247 153.377 73.3053 154.521 72.716C153.204 71.988 152.164 71.026 151.401 69.83C150.639 68.6167 150.257 67.204 150.257 65.592C150.257 64.2747 150.509 63.0873 151.011 62.03C151.531 60.9727 152.251 60.0713 153.169 59.326C154.088 58.5807 155.171 58.0087 156.419 57.61C157.685 57.2113 159.063 57.012 160.553 57.012C162.841 57.012 164.835 57.4887 166.533 58.442H173.943ZM183.735 60.99C184.307 60.4007 184.896 59.872 185.503 59.404C186.127 58.9187 186.785 58.5027 187.479 58.156C188.172 57.8093 188.909 57.5407 189.689 57.35C190.469 57.1593 191.318 57.064 192.237 57.064C193.693 57.064 194.967 57.3067 196.059 57.792C197.168 58.2773 198.095 58.962 198.841 59.846C199.603 60.73 200.175 61.796 200.557 63.044C200.938 64.2747 201.129 65.6353 201.129 67.126V84H195.565V67.126C195.565 65.3407 195.149 63.954 194.317 62.966C193.502 61.978 192.254 61.484 190.573 61.484C189.325 61.484 188.163 61.77 187.089 62.342C186.031 62.914 185.035 63.694 184.099 64.682V84H178.509V57.48H181.889C182.651 57.48 183.137 57.8353 183.345 58.546L183.735 60.99ZM227.968 52.956C227.777 53.268 227.578 53.502 227.37 53.658C227.162 53.7967 226.902 53.866 226.59 53.866C226.261 53.866 225.888 53.7273 225.472 53.45C225.073 53.1727 224.571 52.8693 223.964 52.54C223.375 52.1933 222.673 51.8813 221.858 51.604C221.043 51.3093 220.073 51.162 218.946 51.162C217.906 51.162 216.987 51.292 216.19 51.552C215.41 51.812 214.751 52.176 214.214 52.644C213.677 53.112 213.269 53.6667 212.992 54.308C212.732 54.932 212.602 55.6167 212.602 56.362C212.602 57.3153 212.853 58.1127 213.356 58.754C213.859 59.378 214.517 59.9153 215.332 60.366C216.164 60.8167 217.109 61.2153 218.166 61.562C219.223 61.8913 220.298 62.2467 221.39 62.628C222.499 63.0093 223.583 63.4427 224.64 63.928C225.697 64.4133 226.633 65.0287 227.448 65.774C228.28 66.5193 228.947 67.4293 229.45 68.504C229.953 69.5787 230.204 70.8873 230.204 72.43C230.204 74.094 229.918 75.654 229.346 77.11C228.774 78.566 227.942 79.84 226.85 80.932C225.775 82.0067 224.441 82.856 222.846 83.48C221.269 84.104 219.466 84.416 217.438 84.416C216.242 84.416 215.072 84.2947 213.928 84.052C212.801 83.8267 211.718 83.506 210.678 83.09C209.655 82.6567 208.693 82.1367 207.792 81.53C206.891 80.9233 206.085 80.2473 205.374 79.502L207.142 76.59C207.298 76.3473 207.497 76.1567 207.74 76.018C207.983 75.8793 208.251 75.81 208.546 75.81C208.945 75.81 209.387 76.0007 209.872 76.382C210.357 76.746 210.938 77.1533 211.614 77.604C212.307 78.0373 213.139 78.4447 214.11 78.826C215.081 79.19 216.242 79.372 217.594 79.372C219.795 79.372 221.494 78.8347 222.69 77.76C223.903 76.6853 224.51 75.2033 224.51 73.314C224.51 72.2567 224.259 71.3987 223.756 70.74C223.253 70.064 222.586 69.5007 221.754 69.05C220.939 68.5993 220.003 68.218 218.946 67.906C217.889 67.594 216.814 67.2647 215.722 66.918C214.63 66.554 213.555 66.138 212.498 65.67C211.441 65.1847 210.496 64.5607 209.664 63.798C208.849 63.018 208.191 62.0647 207.688 60.938C207.185 59.794 206.934 58.3727 206.934 56.674C206.934 55.322 207.194 54.0133 207.714 52.748C208.251 51.4827 209.023 50.3647 210.028 49.394C211.051 48.406 212.307 47.6173 213.798 47.028C215.289 46.4387 216.987 46.144 218.894 46.144C221.043 46.144 223.011 46.482 224.796 47.158C226.599 47.834 228.15 48.796 229.45 50.044L227.968 52.956ZM240.969 77.344C241.749 78.3493 242.598 79.06 243.517 79.476C244.453 79.8747 245.484 80.074 246.611 80.074C248.795 80.074 250.494 79.2767 251.707 77.682C252.938 76.0873 253.553 73.7127 253.553 70.558C253.553 68.9287 253.414 67.542 253.137 66.398C252.86 65.2367 252.461 64.292 251.941 63.564C251.421 62.836 250.788 62.3073 250.043 61.978C249.298 61.6487 248.457 61.484 247.521 61.484C246.1 61.484 244.869 61.796 243.829 62.42C242.806 63.0267 241.853 63.902 240.969 65.046V77.344ZM240.683 61.328C241.792 60.028 243.049 58.9793 244.453 58.182C245.874 57.3847 247.521 56.986 249.393 56.986C250.884 56.986 252.236 57.2893 253.449 57.896C254.662 58.4853 255.702 59.352 256.569 60.496C257.436 61.64 258.103 63.0613 258.571 64.76C259.056 66.4413 259.299 68.374 259.299 70.558C259.299 72.5167 259.03 74.3453 258.493 76.044C257.973 77.7253 257.219 79.19 256.231 80.438C255.243 81.6687 254.047 82.6393 252.643 83.35C251.239 84.0433 249.653 84.39 247.885 84.39C246.325 84.39 244.999 84.1387 243.907 83.636C242.832 83.1333 241.853 82.44 240.969 81.556V92.814H235.379V57.48H238.759C239.522 57.48 240.007 57.8353 240.215 58.546L240.683 61.328ZM276.347 57.064C278.305 57.064 280.073 57.3847 281.651 58.026C283.245 58.6673 284.597 59.5773 285.707 60.756C286.833 61.9347 287.7 63.3647 288.307 65.046C288.913 66.7273 289.217 68.6167 289.217 70.714C289.217 72.8113 288.913 74.7007 288.307 76.382C287.7 78.0633 286.833 79.502 285.707 80.698C284.597 81.8767 283.245 82.7867 281.651 83.428C280.073 84.0693 278.305 84.39 276.347 84.39C274.371 84.39 272.585 84.0693 270.991 83.428C269.413 82.7867 268.061 81.8767 266.935 80.698C265.808 79.502 264.941 78.0633 264.335 76.382C263.728 74.7007 263.425 72.8113 263.425 70.714C263.425 68.6167 263.728 66.7273 264.335 65.046C264.941 63.3647 265.808 61.9347 266.935 60.756C268.061 59.5773 269.413 58.6673 270.991 58.026C272.585 57.3847 274.371 57.064 276.347 57.064ZM276.347 80.022C278.739 80.022 280.515 79.2247 281.677 77.63C282.855 76.018 283.445 73.7213 283.445 70.74C283.445 67.7587 282.855 65.462 281.677 63.85C280.515 62.2207 278.739 61.406 276.347 61.406C273.92 61.406 272.117 62.2207 270.939 63.85C269.76 65.462 269.171 67.7587 269.171 70.74C269.171 73.7213 269.76 76.018 270.939 77.63C272.117 79.2247 273.92 80.022 276.347 80.022ZM302.732 84.416C300.531 84.416 298.832 83.8007 297.636 82.57C296.457 81.322 295.868 79.5713 295.868 77.318V61.874H292.956C292.644 61.874 292.375 61.7787 292.15 61.588C291.925 61.38 291.812 61.0767 291.812 60.678V58.416L296.102 57.792L297.324 50.122C297.411 49.8273 297.558 49.5933 297.766 49.42C297.974 49.2293 298.251 49.134 298.598 49.134H301.458V57.844H308.816V61.874H301.458V76.928C301.458 77.8813 301.692 78.6093 302.16 79.112C302.628 79.6147 303.252 79.866 304.032 79.866C304.465 79.866 304.838 79.814 305.15 79.71C305.462 79.5887 305.731 79.4673 305.956 79.346C306.181 79.2073 306.372 79.086 306.528 78.982C306.701 78.8607 306.866 78.8 307.022 78.8C307.334 78.8 307.585 78.9733 307.776 79.32L309.44 82.05C308.573 82.8127 307.551 83.402 306.372 83.818C305.193 84.2167 303.98 84.416 302.732 84.416ZM333.99 52.956C333.799 53.268 333.6 53.502 333.392 53.658C333.184 53.7967 332.924 53.866 332.612 53.866C332.283 53.866 331.91 53.7273 331.494 53.45C331.095 53.1727 330.593 52.8693 329.986 52.54C329.397 52.1933 328.695 51.8813 327.88 51.604C327.065 51.3093 326.095 51.162 324.968 51.162C323.928 51.162 323.009 51.292 322.212 51.552C321.432 51.812 320.773 52.176 320.236 52.644C319.699 53.112 319.291 53.6667 319.014 54.308C318.754 54.932 318.624 55.6167 318.624 56.362C318.624 57.3153 318.875 58.1127 319.378 58.754C319.881 59.378 320.539 59.9153 321.354 60.366C322.186 60.8167 323.131 61.2153 324.188 61.562C325.245 61.8913 326.32 62.2467 327.412 62.628C328.521 63.0093 329.605 63.4427 330.662 63.928C331.719 64.4133 332.655 65.0287 333.47 65.774C334.302 66.5193 334.969 67.4293 335.472 68.504C335.975 69.5787 336.226 70.8873 336.226 72.43C336.226 74.094 335.94 75.654 335.368 77.11C334.796 78.566 333.964 79.84 332.872 80.932C331.797 82.0067 330.463 82.856 328.868 83.48C327.291 84.104 325.488 84.416 323.46 84.416C322.264 84.416 321.094 84.2947 319.95 84.052C318.823 83.8267 317.74 83.506 316.7 83.09C315.677 82.6567 314.715 82.1367 313.814 81.53C312.913 80.9233 312.107 80.2473 311.396 79.502L313.164 76.59C313.32 76.3473 313.519 76.1567 313.762 76.018C314.005 75.8793 314.273 75.81 314.568 75.81C314.967 75.81 315.409 76.0007 315.894 76.382C316.379 76.746 316.96 77.1533 317.636 77.604C318.329 78.0373 319.161 78.4447 320.132 78.826C321.103 79.19 322.264 79.372 323.616 79.372C325.817 79.372 327.516 78.8347 328.712 77.76C329.925 76.6853 330.532 75.2033 330.532 73.314C330.532 72.2567 330.281 71.3987 329.778 70.74C329.275 70.064 328.608 69.5007 327.776 69.05C326.961 68.5993 326.025 68.218 324.968 67.906C323.911 67.594 322.836 67.2647 321.744 66.918C320.652 66.554 319.577 66.138 318.52 65.67C317.463 65.1847 316.518 64.5607 315.686 63.798C314.871 63.018 314.213 62.0647 313.71 60.938C313.207 59.794 312.956 58.3727 312.956 56.674C312.956 55.322 313.216 54.0133 313.736 52.748C314.273 51.4827 315.045 50.3647 316.05 49.394C317.073 48.406 318.329 47.6173 319.82 47.028C321.311 46.4387 323.009 46.144 324.916 46.144C327.065 46.144 329.033 46.482 330.818 47.158C332.621 47.834 334.172 48.796 335.472 50.044L333.99 52.956ZM360.553 62.68C360.38 62.9053 360.215 63.0787 360.059 63.2C359.903 63.3213 359.678 63.382 359.383 63.382C359.089 63.382 358.777 63.278 358.447 63.07C358.135 62.862 357.754 62.6367 357.303 62.394C356.87 62.134 356.341 61.9 355.717 61.692C355.093 61.484 354.313 61.38 353.377 61.38C352.164 61.38 351.098 61.5967 350.179 62.03C349.278 62.4633 348.515 63.0873 347.891 63.902C347.285 64.6993 346.825 65.6787 346.513 66.84C346.219 67.984 346.071 69.2753 346.071 70.714C346.071 72.2047 346.236 73.5307 346.565 74.692C346.895 75.8533 347.363 76.8327 347.969 77.63C348.593 78.4273 349.339 79.034 350.205 79.45C351.089 79.866 352.077 80.074 353.169 80.074C354.244 80.074 355.119 79.944 355.795 79.684C356.471 79.424 357.035 79.138 357.485 78.826C357.936 78.514 358.317 78.228 358.629 77.968C358.959 77.708 359.305 77.578 359.669 77.578C360.12 77.578 360.467 77.7513 360.709 78.098L362.295 80.152C361.654 80.932 360.943 81.5907 360.163 82.128C359.383 82.6653 358.56 83.1073 357.693 83.454C356.827 83.7833 355.925 84.0173 354.989 84.156C354.053 84.312 353.109 84.39 352.155 84.39C350.509 84.39 348.966 84.0867 347.527 83.48C346.106 82.856 344.858 81.9633 343.783 80.802C342.726 79.6233 341.885 78.1933 341.261 76.512C340.655 74.8133 340.351 72.8807 340.351 70.714C340.351 68.7553 340.629 66.944 341.183 65.28C341.738 63.5987 342.544 62.1513 343.601 60.938C344.676 59.7247 346.002 58.78 347.579 58.104C349.157 57.4107 350.977 57.064 353.039 57.064C354.963 57.064 356.653 57.376 358.109 58C359.583 58.624 360.891 59.508 362.035 60.652L360.553 62.68ZM372.532 60.626C373.624 59.5513 374.82 58.6933 376.12 58.052C377.42 57.3933 378.936 57.064 380.67 57.064C382.126 57.064 383.4 57.3067 384.492 57.792C385.601 58.2773 386.528 58.962 387.274 59.846C388.036 60.73 388.608 61.796 388.99 63.044C389.371 64.2747 389.562 65.6353 389.562 67.126V84H383.998V67.126C383.998 65.3407 383.582 63.954 382.75 62.966C381.935 61.978 380.687 61.484 379.006 61.484C377.758 61.484 376.596 61.77 375.522 62.342C374.464 62.914 373.468 63.694 372.532 64.682V84H366.942V45.52H372.532V60.626ZM407.706 57.064C409.665 57.064 411.433 57.3847 413.01 58.026C414.605 58.6673 415.957 59.5773 417.066 60.756C418.193 61.9347 419.059 63.3647 419.666 65.046C420.273 66.7273 420.576 68.6167 420.576 70.714C420.576 72.8113 420.273 74.7007 419.666 76.382C419.059 78.0633 418.193 79.502 417.066 80.698C415.957 81.8767 414.605 82.7867 413.01 83.428C411.433 84.0693 409.665 84.39 407.706 84.39C405.73 84.39 403.945 84.0693 402.35 83.428C400.773 82.7867 399.421 81.8767 398.294 80.698C397.167 79.502 396.301 78.0633 395.694 76.382C395.087 74.7007 394.784 72.8113 394.784 70.714C394.784 68.6167 395.087 66.7273 395.694 65.046C396.301 63.3647 397.167 61.9347 398.294 60.756C399.421 59.5773 400.773 58.6673 402.35 58.026C403.945 57.3847 405.73 57.064 407.706 57.064ZM407.706 80.022C410.098 80.022 411.875 79.2247 413.036 77.63C414.215 76.018 414.804 73.7213 414.804 70.74C414.804 67.7587 414.215 65.462 413.036 63.85C411.875 62.2207 410.098 61.406 407.706 61.406C405.279 61.406 403.477 62.2207 402.298 63.85C401.119 65.462 400.53 67.7587 400.53 70.74C400.53 73.7213 401.119 76.018 402.298 77.63C403.477 79.2247 405.279 80.022 407.706 80.022ZM437.563 57.064C439.522 57.064 441.29 57.3847 442.867 58.026C444.462 58.6673 445.814 59.5773 446.923 60.756C448.05 61.9347 448.916 63.3647 449.523 65.046C450.13 66.7273 450.433 68.6167 450.433 70.714C450.433 72.8113 450.13 74.7007 449.523 76.382C448.916 78.0633 448.05 79.502 446.923 80.698C445.814 81.8767 444.462 82.7867 442.867 83.428C441.29 84.0693 439.522 84.39 437.563 84.39C435.587 84.39 433.802 84.0693 432.207 83.428C430.63 82.7867 429.278 81.8767 428.151 80.698C427.024 79.502 426.158 78.0633 425.551 76.382C424.944 74.7007 424.641 72.8113 424.641 70.714C424.641 68.6167 424.944 66.7273 425.551 65.046C426.158 63.3647 427.024 61.9347 428.151 60.756C429.278 59.5773 430.63 58.6673 432.207 58.026C433.802 57.3847 435.587 57.064 437.563 57.064ZM437.563 80.022C439.955 80.022 441.732 79.2247 442.893 77.63C444.072 76.018 444.661 73.7213 444.661 70.74C444.661 67.7587 444.072 65.462 442.893 63.85C441.732 62.2207 439.955 61.406 437.563 61.406C435.136 61.406 433.334 62.2207 432.155 63.85C430.976 65.462 430.387 67.7587 430.387 70.74C430.387 73.7213 430.976 76.018 432.155 77.63C433.334 79.2247 435.136 80.022 437.563 80.022ZM461.648 45.52V84H456.058V45.52H461.648Z" fill="white" fill-opacity="0.87"/>
</svg>
