<svg width="210" height="60" viewBox="0 0 210 60" fill="none" xmlns="http://www.w3.org/2000/svg">
<rect x="0.75" y="0.75" width="208.5" height="58.5" rx="4.25" stroke="#61FFD9" stroke-width="1.5"/>
<path d="M65.4176 30.82C65.4176 31.8933 65.2442 32.88 64.8976 33.78C64.5576 34.6733 64.0742 35.4467 63.4476 36.1C62.8209 36.7467 62.0709 37.25 61.1976 37.61C60.3242 37.97 59.3542 38.15 58.2876 38.15C57.2276 38.15 56.2576 37.97 55.3776 37.61C54.5042 37.25 53.7542 36.7467 53.1276 36.1C52.5076 35.4467 52.0242 34.6733 51.6776 33.78C51.3309 32.88 51.1576 31.8933 51.1576 30.82C51.1576 29.7533 51.3309 28.77 51.6776 27.87C52.0242 26.97 52.5076 26.1967 53.1276 25.55C53.7542 24.8967 54.5042 24.39 55.3776 24.03C56.2576 23.6633 57.2276 23.48 58.2876 23.48C59.3542 23.48 60.3242 23.6633 61.1976 24.03C62.0709 24.39 62.8209 24.8967 63.4476 25.55C64.0742 26.1967 64.5576 26.97 64.8976 27.87C65.2442 28.77 65.4176 29.7533 65.4176 30.82ZM63.2376 30.82C63.2376 29.9667 63.1209 29.2 62.8876 28.52C62.6542 27.84 62.3209 27.2633 61.8876 26.79C61.4609 26.3167 60.9409 25.9533 60.3276 25.7C59.7209 25.4467 59.0409 25.32 58.2876 25.32C57.5342 25.32 56.8509 25.4467 56.2376 25.7C55.6309 25.9533 55.1109 26.3167 54.6776 26.79C54.2442 27.2633 53.9109 27.84 53.6776 28.52C53.4442 29.2 53.3276 29.9667 53.3276 30.82C53.3276 31.68 53.4442 32.45 53.6776 33.13C53.9109 33.8033 54.2442 34.3767 54.6776 34.85C55.1109 35.3233 55.6309 35.6867 56.2376 35.94C56.8509 36.1867 57.5342 36.31 58.2876 36.31C59.0409 36.31 59.7209 36.1867 60.3276 35.94C60.9409 35.6867 61.4609 35.3233 61.8876 34.85C62.3209 34.3767 62.6542 33.8033 62.8876 33.13C63.1209 32.45 63.2376 31.68 63.2376 30.82ZM74.6755 29.74C74.6155 29.8133 74.5555 29.8733 74.4955 29.92C74.4422 29.96 74.3622 29.98 74.2555 29.98C74.1489 29.98 74.0355 29.94 73.9155 29.86C73.8022 29.7733 73.6555 29.6833 73.4755 29.59C73.3022 29.49 73.0889 29.4 72.8355 29.32C72.5889 29.2333 72.2822 29.19 71.9155 29.19C71.4355 29.19 71.0122 29.2767 70.6455 29.45C70.2789 29.6233 69.9722 29.87 69.7255 30.19C69.4855 30.51 69.3022 30.9 69.1755 31.36C69.0489 31.82 68.9855 32.3367 68.9855 32.91C68.9855 33.5033 69.0522 34.0333 69.1855 34.5C69.3189 34.96 69.5089 35.35 69.7555 35.67C70.0022 35.9833 70.3022 36.2233 70.6555 36.39C71.0089 36.55 71.4022 36.63 71.8355 36.63C72.2555 36.63 72.6022 36.58 72.8755 36.48C73.1489 36.3733 73.3755 36.26 73.5555 36.14C73.7355 36.02 73.8855 35.91 74.0055 35.81C74.1255 35.7033 74.2489 35.65 74.3755 35.65C74.5355 35.65 74.6589 35.71 74.7455 35.83L75.3055 36.55C75.0722 36.8367 74.8089 37.08 74.5155 37.28C74.2289 37.48 73.9222 37.6433 73.5955 37.77C73.2689 37.8967 72.9255 37.99 72.5655 38.05C72.2122 38.11 71.8522 38.14 71.4855 38.14C70.8522 38.14 70.2589 38.0233 69.7055 37.79C69.1589 37.5567 68.6822 37.2167 68.2755 36.77C67.8755 36.3233 67.5589 35.7767 67.3255 35.13C67.0922 34.4767 66.9755 33.7367 66.9755 32.91C66.9755 32.1567 67.0789 31.46 67.2855 30.82C67.4989 30.18 67.8089 29.63 68.2155 29.17C68.6289 28.7033 69.1355 28.34 69.7355 28.08C70.3355 27.8133 71.0222 27.68 71.7955 27.68C72.5222 27.68 73.1622 27.7967 73.7155 28.03C74.2689 28.2633 74.7622 28.5933 75.1955 29.02L74.6755 29.74ZM85.6359 29.32H81.8059V38H79.8459V29.32H76.0159V27.84H85.6359V29.32ZM92.6445 33.49C91.8511 33.5167 91.1778 33.58 90.6245 33.68C90.0711 33.7733 89.6211 33.9 89.2745 34.06C88.9278 34.22 88.6778 34.41 88.5245 34.63C88.3711 34.8433 88.2945 35.0833 88.2945 35.35C88.2945 35.6033 88.3345 35.8233 88.4145 36.01C88.5011 36.19 88.6145 36.34 88.7545 36.46C88.9011 36.5733 89.0711 36.6567 89.2645 36.71C89.4578 36.7633 89.6678 36.79 89.8945 36.79C90.1945 36.79 90.4678 36.76 90.7145 36.7C90.9678 36.64 91.2045 36.5567 91.4245 36.45C91.6445 36.3367 91.8545 36.2 92.0545 36.04C92.2545 35.88 92.4511 35.6967 92.6445 35.49V33.49ZM86.9245 29.26C87.4911 28.72 88.1045 28.3167 88.7645 28.05C89.4311 27.7833 90.1611 27.65 90.9545 27.65C91.5345 27.65 92.0478 27.7467 92.4945 27.94C92.9411 28.1267 93.3178 28.39 93.6245 28.73C93.9311 29.07 94.1611 29.4767 94.3145 29.95C94.4745 30.4233 94.5545 30.9467 94.5545 31.52V38H93.6845C93.4911 38 93.3445 37.97 93.2445 37.91C93.1445 37.8433 93.0645 37.7233 93.0045 37.55L92.7945 36.66C92.5345 36.9 92.2778 37.1133 92.0245 37.3C91.7711 37.48 91.5045 37.6367 91.2245 37.77C90.9511 37.8967 90.6578 37.9933 90.3445 38.06C90.0311 38.1267 89.6845 38.16 89.3045 38.16C88.9045 38.16 88.5278 38.1067 88.1745 38C87.8278 37.8867 87.5245 37.7167 87.2645 37.49C87.0045 37.2633 86.7978 36.98 86.6445 36.64C86.4978 36.3 86.4245 35.9033 86.4245 35.45C86.4245 35.05 86.5311 34.6667 86.7445 34.3C86.9645 33.9267 87.3178 33.5933 87.8045 33.3C88.2978 33.0067 88.9378 32.7667 89.7245 32.58C90.5178 32.3933 91.4911 32.2867 92.6445 32.26V31.52C92.6445 30.7533 92.4811 30.18 92.1545 29.8C91.8278 29.42 91.3478 29.23 90.7145 29.23C90.2878 29.23 89.9278 29.2833 89.6345 29.39C89.3478 29.4967 89.0978 29.6167 88.8845 29.75C88.6778 29.8767 88.4945 29.9933 88.3345 30.1C88.1811 30.2067 88.0211 30.26 87.8545 30.26C87.7211 30.26 87.6045 30.2233 87.5045 30.15C87.4111 30.0767 87.3345 29.99 87.2745 29.89L86.9245 29.26ZM101.125 36.63C101.752 36.63 102.248 36.4833 102.615 36.19C102.982 35.89 103.165 35.4867 103.165 34.98C103.165 34.76 103.132 34.5567 103.065 34.37C102.998 34.1767 102.885 34.01 102.725 33.87C102.565 33.73 102.355 33.6233 102.095 33.55C101.835 33.47 101.515 33.43 101.135 33.43H99.0249V36.63H101.125ZM99.0249 29.14V32.19H100.895C101.175 32.19 101.432 32.15 101.665 32.07C101.905 31.99 102.108 31.88 102.275 31.74C102.448 31.5933 102.582 31.42 102.675 31.22C102.775 31.0133 102.825 30.79 102.825 30.55C102.825 30.37 102.792 30.1967 102.725 30.03C102.665 29.8633 102.558 29.7133 102.405 29.58C102.258 29.4467 102.062 29.34 101.815 29.26C101.568 29.18 101.262 29.14 100.895 29.14H99.0249ZM100.955 27.84C101.582 27.84 102.122 27.9033 102.575 28.03C103.028 28.15 103.402 28.32 103.695 28.54C103.988 28.76 104.202 29.0167 104.335 29.31C104.475 29.6033 104.545 29.92 104.545 30.26C104.545 30.48 104.515 30.71 104.455 30.95C104.395 31.19 104.292 31.42 104.145 31.64C103.998 31.8533 103.798 32.05 103.545 32.23C103.298 32.41 102.982 32.55 102.595 32.65C103.342 32.7833 103.922 33.05 104.335 33.45C104.755 33.85 104.965 34.38 104.965 35.04C104.965 35.54 104.862 35.9767 104.655 36.35C104.455 36.7167 104.182 37.0233 103.835 37.27C103.488 37.5167 103.082 37.7 102.615 37.82C102.148 37.94 101.655 38 101.135 38H97.1649V27.84H100.955ZM115.946 27.84V38H113.986V31.36C113.986 31.2267 113.993 31.08 114.006 30.92C114.019 30.7533 114.039 30.5867 114.066 30.42C113.999 30.56 113.933 30.6933 113.866 30.82C113.806 30.94 113.743 31.0467 113.676 31.14L109.006 37.51C108.933 37.63 108.836 37.7433 108.716 37.85C108.596 37.9567 108.459 38.01 108.306 38.01H107.126V27.84H109.076V34.49C109.076 34.6233 109.069 34.7733 109.056 34.94C109.043 35.1 109.023 35.26 108.996 35.42C109.129 35.1267 109.259 34.89 109.386 34.71L114.056 28.33C114.129 28.2167 114.226 28.1067 114.346 28C114.473 27.8933 114.613 27.84 114.766 27.84H115.946ZM127.179 29.32H123.349V38H121.389V29.32H117.559V27.84H127.179V29.32ZM132.766 36.57C133.432 36.57 133.932 36.41 134.266 36.09C134.599 35.7633 134.766 35.35 134.766 34.85C134.766 34.6233 134.729 34.41 134.656 34.21C134.582 34.0033 134.466 33.8267 134.306 33.68C134.146 33.5267 133.936 33.4067 133.676 33.32C133.422 33.2267 133.109 33.18 132.736 33.18H130.666V36.57H132.766ZM132.736 31.76C133.436 31.76 134.026 31.8467 134.506 32.02C134.992 32.1867 135.382 32.4133 135.676 32.7C135.969 32.98 136.179 33.3067 136.306 33.68C136.439 34.0467 136.506 34.43 136.506 34.83C136.506 35.29 136.422 35.7167 136.256 36.11C136.096 36.4967 135.856 36.83 135.536 37.11C135.216 37.39 134.822 37.61 134.356 37.77C133.896 37.9233 133.366 38 132.766 38H128.806V27.84H130.666V31.76H132.736ZM147.804 27.68C148.55 27.68 149.224 27.8033 149.824 28.05C150.43 28.29 150.944 28.64 151.364 29.1C151.79 29.5533 152.117 30.1033 152.344 30.75C152.57 31.39 152.684 32.11 152.684 32.91C152.684 33.71 152.57 34.4333 152.344 35.08C152.117 35.7267 151.79 36.2767 151.364 36.73C150.944 37.1833 150.43 37.5333 149.824 37.78C149.224 38.02 148.55 38.14 147.804 38.14C147.05 38.14 146.37 38.02 145.764 37.78C145.164 37.5333 144.65 37.1833 144.224 36.73C143.797 36.2767 143.467 35.7267 143.234 35.08C143.007 34.4333 142.894 33.71 142.894 32.91C142.894 32.11 143.007 31.39 143.234 30.75C143.467 30.1033 143.797 29.5533 144.224 29.1C144.65 28.64 145.164 28.29 145.764 28.05C146.37 27.8033 147.05 27.68 147.804 27.68ZM147.804 36.62C148.764 36.62 149.48 36.2967 149.954 35.65C150.427 35.0033 150.664 34.0933 150.664 32.92C150.664 31.7467 150.427 30.8367 149.954 30.19C149.48 29.5367 148.764 29.21 147.804 29.21C146.83 29.21 146.104 29.5367 145.624 30.19C145.15 30.8367 144.914 31.7467 144.914 32.92C144.914 34.0933 145.15 35.0033 145.624 35.65C146.104 36.2967 146.83 36.62 147.804 36.62ZM162.999 29.32H159.169V38H157.209V29.32H153.379V27.84H162.999V29.32ZM163.986 28.9C164.366 28.54 164.833 28.2467 165.386 28.02C165.939 27.7933 166.603 27.68 167.376 27.68C167.996 27.68 168.543 27.7567 169.016 27.91C169.489 28.0567 169.886 28.2567 170.206 28.51C170.533 28.7567 170.776 29.04 170.936 29.36C171.103 29.68 171.186 30.0133 171.186 30.36C171.186 30.56 171.153 30.77 171.086 30.99C171.026 31.2033 170.926 31.41 170.786 31.61C170.646 31.81 170.459 31.9967 170.226 32.17C169.999 32.3367 169.716 32.4767 169.376 32.59C170.003 32.7833 170.499 33.09 170.866 33.51C171.233 33.93 171.416 34.4533 171.416 35.08C171.416 35.5533 171.306 35.98 171.086 36.36C170.873 36.74 170.583 37.0633 170.216 37.33C169.849 37.59 169.426 37.79 168.946 37.93C168.466 38.07 167.966 38.14 167.446 38.14C167.126 38.14 166.796 38.11 166.456 38.05C166.123 37.99 165.793 37.8967 165.466 37.77C165.139 37.6433 164.829 37.48 164.536 37.28C164.243 37.08 163.979 36.8367 163.746 36.55L164.306 35.83C164.393 35.71 164.516 35.65 164.676 35.65C164.803 35.65 164.933 35.7033 165.066 35.81C165.206 35.91 165.373 36.02 165.566 36.14C165.766 36.26 166.003 36.3733 166.276 36.48C166.556 36.58 166.903 36.63 167.316 36.63C167.669 36.63 167.983 36.5867 168.256 36.5C168.536 36.4133 168.769 36.2933 168.956 36.14C169.149 35.9867 169.296 35.8067 169.396 35.6C169.496 35.3933 169.546 35.1667 169.546 34.92C169.546 34.44 169.349 34.0567 168.956 33.77C168.563 33.4833 167.956 33.34 167.136 33.34H165.986V32.04H167.136C167.856 32.04 168.416 31.9067 168.816 31.64C169.216 31.3667 169.416 31.0167 169.416 30.59C169.416 30.4033 169.373 30.2267 169.286 30.06C169.199 29.8867 169.066 29.7367 168.886 29.61C168.713 29.4767 168.493 29.3733 168.226 29.3C167.966 29.2267 167.663 29.19 167.316 29.19C166.929 29.19 166.603 29.23 166.336 29.31C166.069 29.3833 165.843 29.4667 165.656 29.56C165.469 29.6533 165.313 29.74 165.186 29.82C165.066 29.8933 164.963 29.93 164.876 29.93C164.783 29.93 164.703 29.9133 164.636 29.88C164.576 29.84 164.509 29.7633 164.436 29.65L163.986 28.9ZM177.57 36.57C178.237 36.57 178.737 36.41 179.07 36.09C179.404 35.7633 179.57 35.35 179.57 34.85C179.57 34.6233 179.534 34.41 179.46 34.21C179.387 34.0033 179.27 33.8267 179.11 33.68C178.95 33.5267 178.74 33.4067 178.48 33.32C178.227 33.2267 177.914 33.18 177.54 33.18H175.47V36.57H177.57ZM177.54 31.76C178.24 31.76 178.83 31.8467 179.31 32.02C179.797 32.1867 180.187 32.4133 180.48 32.7C180.774 32.98 180.984 33.3067 181.11 33.68C181.244 34.0467 181.31 34.43 181.31 34.83C181.31 35.29 181.227 35.7167 181.06 36.11C180.9 36.4967 180.66 36.83 180.34 37.11C180.02 37.39 179.627 37.61 179.16 37.77C178.7 37.9233 178.17 38 177.57 38H173.61V27.84H175.47V31.76H177.54ZM185.4 27.84V38H183.45V27.84H185.4ZM192.101 36.63C192.728 36.63 193.225 36.4833 193.591 36.19C193.958 35.89 194.141 35.4867 194.141 34.98C194.141 34.76 194.108 34.5567 194.041 34.37C193.975 34.1767 193.861 34.01 193.701 33.87C193.541 33.73 193.331 33.6233 193.071 33.55C192.811 33.47 192.491 33.43 192.111 33.43H190.001V36.63H192.101ZM190.001 29.14V32.19H191.871C192.151 32.19 192.408 32.15 192.641 32.07C192.881 31.99 193.085 31.88 193.251 31.74C193.425 31.5933 193.558 31.42 193.651 31.22C193.751 31.0133 193.801 30.79 193.801 30.55C193.801 30.37 193.768 30.1967 193.701 30.03C193.641 29.8633 193.535 29.7133 193.381 29.58C193.235 29.4467 193.038 29.34 192.791 29.26C192.545 29.18 192.238 29.14 191.871 29.14H190.001ZM191.931 27.84C192.558 27.84 193.098 27.9033 193.551 28.03C194.005 28.15 194.378 28.32 194.671 28.54C194.965 28.76 195.178 29.0167 195.311 29.31C195.451 29.6033 195.521 29.92 195.521 30.26C195.521 30.48 195.491 30.71 195.431 30.95C195.371 31.19 195.268 31.42 195.121 31.64C194.975 31.8533 194.775 32.05 194.521 32.23C194.275 32.41 193.958 32.55 193.571 32.65C194.318 32.7833 194.898 33.05 195.311 33.45C195.731 33.85 195.941 34.38 195.941 35.04C195.941 35.54 195.838 35.9767 195.631 36.35C195.431 36.7167 195.158 37.0233 194.811 37.27C194.465 37.5167 194.058 37.7 193.591 37.82C193.125 37.94 192.631 38 192.111 38H188.141V27.84H191.931Z" fill="#61FFD9"/>
<g clip-path="url(#clip0)">
<path d="M21.4934 40.566H19.7928L20.9953 39.3635C21.6437 38.7151 22.0486 37.8718 22.1574 36.957C20.4655 35.8467 19.2283 34.3859 18.566 32.7106C17.9042 31.0366 17.821 29.1939 18.3255 27.3815C18.9309 25.2068 20.3506 23.2247 22.3232 21.8001C24.4667 20.2522 27.1352 19.434 30.0401 19.434C33.6996 19.434 36.7841 20.4853 38.9601 22.4744C40.9204 24.2663 42 26.6834 42 29.2805C42 30.5422 41.7431 31.7699 41.2364 32.9294C40.7121 34.1293 39.9444 35.1977 38.9545 36.1048C36.7756 38.1017 33.693 39.1572 30.0401 39.1572C28.684 39.1572 27.269 38.9762 26.0056 38.644C24.8097 39.8707 23.1893 40.566 21.4934 40.566ZM30.0401 20.8428C24.2152 20.8428 20.641 24.3165 19.6827 27.7593C18.7772 31.0127 20.1121 34.0868 23.2537 35.9827L23.6047 36.1945L23.5939 36.6044C23.5725 37.4156 23.3792 38.1969 23.033 38.9032C23.8759 38.618 24.6407 38.1009 25.2397 37.3933L25.5375 37.0415L25.9791 37.1736C27.2186 37.5443 28.6608 37.7484 30.0401 37.7484C37.2894 37.7484 40.5912 33.3589 40.5912 29.2805C40.5912 27.0839 39.6744 25.036 38.0095 23.5142C36.0976 21.7666 33.3418 20.8428 30.0401 20.8428Z" fill="#61FFD9"/>
</g>
<defs>
<clipPath id="clip0">
<rect width="24" height="24" fill="white" transform="translate(18 18)"/>
</clipPath>
</defs>
</svg>
