<svg width="210" height="60" viewBox="0 0 210 60" fill="none" xmlns="http://www.w3.org/2000/svg">
<rect x="0.75" y="0.75" width="208.5" height="58.5" rx="4.25" stroke="#61FFD9" stroke-width="1.5"/>
<g clip-path="url(#clip0)">
<path d="M50.6294 20.3841C50.3363 20.0256 49.8972 19.8282 49.3929 19.8282C49.1188 19.8282 48.8284 19.8859 48.5299 19.9999L28.2144 27.755C27.1363 28.1664 26.9911 28.7839 27.0004 29.1153C27.0097 29.4467 27.1897 30.055 28.2895 30.4049C28.2961 30.4069 28.3026 30.4089 28.3092 30.4108L32.5232 31.6167L34.8022 38.1334C35.1129 39.0219 35.8103 39.5737 36.6226 39.5737C37.1347 39.5737 37.6385 39.3591 38.0794 38.9534L40.6859 36.5534L44.4665 39.5975C44.4668 39.5979 44.4674 39.5981 44.4678 39.5984L44.5036 39.6274C44.5069 39.6299 44.5104 39.6327 44.5137 39.6353C44.9339 39.9612 45.3926 40.1333 45.8407 40.1335H45.8409C46.7163 40.1335 47.4134 39.4855 47.6164 38.4828L50.9451 22.0465C51.0788 21.3868 50.9667 20.7964 50.6294 20.3841ZM33.933 31.3876L42.063 27.2343L37.0007 32.6133C36.9178 32.7014 36.859 32.8093 36.8301 32.9266L35.8539 36.8806L33.933 31.3876ZM37.1267 37.9188C37.093 37.9498 37.0591 37.9774 37.0252 38.0029L37.9309 34.3349L39.5783 35.6615L37.1267 37.9188ZM49.5669 21.7673L46.2382 38.2037C46.2062 38.361 46.1038 38.7271 45.8407 38.7271C45.7107 38.7271 45.5473 38.6562 45.3802 38.5275L41.0962 35.0781C41.0957 35.0776 41.0949 35.077 41.0942 35.0767L38.5452 33.024L45.8659 25.2452C46.1003 24.9962 46.1216 24.6147 45.9163 24.3412C45.7109 24.0676 45.3386 23.9816 45.0341 24.1372L32.9934 30.2885L28.7221 29.0664L49.0315 21.3137C49.203 21.2482 49.3228 21.2344 49.3929 21.2344C49.4359 21.2344 49.5125 21.2396 49.5409 21.2745C49.5782 21.3201 49.6258 21.4756 49.5669 21.7673Z" fill="#61FFD9"/>
</g>
<path d="M74.6577 24.42H70.0977V37H67.9777V24.42H63.3977V22.64H74.6577V24.42ZM80.6313 30.79C80.6313 30.4033 80.5746 30.0467 80.4613 29.72C80.3546 29.3933 80.1946 29.11 79.9813 28.87C79.7679 28.63 79.5079 28.4433 79.2013 28.31C78.8946 28.1767 78.5413 28.11 78.1413 28.11C77.3213 28.11 76.6746 28.3467 76.2013 28.82C75.7346 29.2933 75.4379 29.95 75.3113 30.79H80.6313ZM82.2413 35.55C82.0013 35.83 81.7246 36.0733 81.4113 36.28C81.0979 36.48 80.7646 36.6433 80.4113 36.77C80.0579 36.8967 79.6913 36.99 79.3113 37.05C78.9379 37.11 78.5679 37.14 78.2013 37.14C77.5013 37.14 76.8513 37.0233 76.2513 36.79C75.6579 36.55 75.1413 36.2033 74.7013 35.75C74.2679 35.29 73.9279 34.7233 73.6813 34.05C73.4413 33.37 73.3213 32.59 73.3213 31.71C73.3213 31.0033 73.4313 30.3467 73.6513 29.74C73.8713 29.1267 74.1846 28.5933 74.5913 28.14C75.0046 27.6867 75.5079 27.33 76.1013 27.07C76.6946 26.81 77.3613 26.68 78.1013 26.68C78.7213 26.68 79.2913 26.7833 79.8113 26.99C80.3379 27.19 80.7913 27.4833 81.1713 27.87C81.5513 28.2567 81.8479 28.7333 82.0613 29.3C82.2813 29.8667 82.3913 30.5133 82.3913 31.24C82.3913 31.54 82.3579 31.7433 82.2913 31.85C82.2246 31.95 82.1013 32 81.9213 32H75.2613C75.2813 32.6067 75.3679 33.1367 75.5213 33.59C75.6746 34.0367 75.8846 34.41 76.1513 34.71C76.4246 35.01 76.7479 35.2333 77.1213 35.38C77.4946 35.5267 77.9113 35.6 78.3713 35.6C78.8046 35.6 79.1779 35.55 79.4913 35.45C79.8113 35.35 80.0846 35.2433 80.3113 35.13C80.5446 35.01 80.7379 34.9 80.8913 34.8C81.0513 34.7 81.1913 34.65 81.3113 34.65C81.4713 34.65 81.5946 34.71 81.6813 34.83L82.2413 35.55ZM86.4872 22.24V37H84.5272V22.24H86.4872ZM96.0023 30.79C96.0023 30.4033 95.9457 30.0467 95.8323 29.72C95.7257 29.3933 95.5657 29.11 95.3523 28.87C95.139 28.63 94.879 28.4433 94.5723 28.31C94.2657 28.1767 93.9123 28.11 93.5123 28.11C92.6923 28.11 92.0457 28.3467 91.5723 28.82C91.1057 29.2933 90.809 29.95 90.6823 30.79H96.0023ZM97.6123 35.55C97.3723 35.83 97.0957 36.0733 96.7823 36.28C96.469 36.48 96.1357 36.6433 95.7823 36.77C95.429 36.8967 95.0623 36.99 94.6823 37.05C94.309 37.11 93.939 37.14 93.5723 37.14C92.8723 37.14 92.2223 37.0233 91.6223 36.79C91.029 36.55 90.5123 36.2033 90.0723 35.75C89.639 35.29 89.299 34.7233 89.0523 34.05C88.8123 33.37 88.6923 32.59 88.6923 31.71C88.6923 31.0033 88.8023 30.3467 89.0223 29.74C89.2423 29.1267 89.5557 28.5933 89.9623 28.14C90.3757 27.6867 90.879 27.33 91.4723 27.07C92.0657 26.81 92.7323 26.68 93.4723 26.68C94.0923 26.68 94.6623 26.7833 95.1823 26.99C95.709 27.19 96.1623 27.4833 96.5423 27.87C96.9223 28.2567 97.219 28.7333 97.4323 29.3C97.6523 29.8667 97.7623 30.5133 97.7623 31.24C97.7623 31.54 97.729 31.7433 97.6623 31.85C97.5957 31.95 97.4723 32 97.2923 32H90.6323C90.6523 32.6067 90.739 33.1367 90.8923 33.59C91.0457 34.0367 91.2557 34.41 91.5223 34.71C91.7957 35.01 92.119 35.2333 92.4923 35.38C92.8657 35.5267 93.2823 35.6 93.7423 35.6C94.1757 35.6 94.549 35.55 94.8623 35.45C95.1823 35.35 95.4557 35.2433 95.6823 35.13C95.9157 35.01 96.109 34.9 96.2623 34.8C96.4223 34.7 96.5623 34.65 96.6823 34.65C96.8423 34.65 96.9657 34.71 97.0523 34.83L97.6123 35.55ZM103.428 31.93C103.775 31.93 104.078 31.8833 104.338 31.79C104.605 31.6967 104.825 31.5667 104.998 31.4C105.178 31.2267 105.312 31.02 105.398 30.78C105.492 30.54 105.538 30.2767 105.538 29.99C105.538 29.4033 105.358 28.9367 104.998 28.59C104.645 28.2367 104.122 28.06 103.428 28.06C102.742 28.06 102.218 28.2367 101.858 28.59C101.505 28.9367 101.328 29.4033 101.328 29.99C101.328 30.2767 101.372 30.54 101.458 30.78C101.552 31.0133 101.685 31.2167 101.858 31.39C102.038 31.5567 102.258 31.69 102.518 31.79C102.785 31.8833 103.088 31.93 103.428 31.93ZM106.538 37.53C106.538 37.29 106.472 37.1 106.338 36.96C106.205 36.8133 106.022 36.7 105.788 36.62C105.562 36.5333 105.295 36.4733 104.988 36.44C104.682 36.4 104.358 36.37 104.018 36.35C103.685 36.33 103.342 36.3133 102.988 36.3C102.635 36.28 102.295 36.2467 101.968 36.2C101.622 36.3733 101.335 36.5833 101.108 36.83C100.888 37.0767 100.778 37.3667 100.778 37.7C100.778 37.9133 100.832 38.1133 100.938 38.3C101.052 38.4867 101.222 38.6467 101.448 38.78C101.682 38.92 101.972 39.0267 102.318 39.1C102.672 39.18 103.092 39.22 103.578 39.22C104.058 39.22 104.482 39.1767 104.848 39.09C105.215 39.01 105.522 38.8933 105.768 38.74C106.022 38.5933 106.212 38.4167 106.338 38.21C106.472 38.0033 106.538 37.7767 106.538 37.53ZM108.518 27.22V27.95C108.518 28.19 108.368 28.34 108.068 28.4L106.978 28.56C107.072 28.7667 107.145 28.9867 107.198 29.22C107.252 29.4467 107.278 29.6867 107.278 29.94C107.278 30.44 107.182 30.8933 106.988 31.3C106.795 31.7 106.528 32.0433 106.188 32.33C105.848 32.6167 105.442 32.8367 104.968 32.99C104.502 33.1433 103.988 33.22 103.428 33.22C102.968 33.22 102.538 33.17 102.138 33.07C101.938 33.19 101.785 33.3233 101.678 33.47C101.578 33.61 101.528 33.75 101.528 33.89C101.528 34.1233 101.625 34.2967 101.818 34.41C102.018 34.5233 102.275 34.6067 102.588 34.66C102.908 34.7067 103.272 34.7367 103.678 34.75C104.092 34.7633 104.508 34.7867 104.928 34.82C105.355 34.8467 105.772 34.9 106.178 34.98C106.592 35.0533 106.955 35.1767 107.268 35.35C107.588 35.5167 107.845 35.75 108.038 36.05C108.238 36.3433 108.338 36.7267 108.338 37.2C108.338 37.64 108.228 38.0667 108.008 38.48C107.795 38.8933 107.482 39.26 107.068 39.58C106.655 39.9 106.152 40.1567 105.558 40.35C104.965 40.5433 104.292 40.64 103.538 40.64C102.785 40.64 102.128 40.5667 101.568 40.42C101.015 40.2733 100.552 40.0767 100.178 39.83C99.8116 39.5833 99.5349 39.2967 99.3483 38.97C99.1683 38.6433 99.0783 38.3033 99.0783 37.95C99.0783 37.4567 99.2316 37.04 99.5383 36.7C99.8449 36.3533 100.268 36.0833 100.808 35.89C100.515 35.7567 100.282 35.5767 100.108 35.35C99.9349 35.1167 99.8483 34.81 99.8483 34.43C99.8483 34.2833 99.8749 34.1333 99.9283 33.98C99.9816 33.82 100.062 33.6633 100.168 33.51C100.282 33.35 100.418 33.2 100.578 33.06C100.745 32.92 100.935 32.7933 101.148 32.68C100.648 32.4 100.255 32.03 99.9683 31.57C99.6816 31.1033 99.5383 30.56 99.5383 29.94C99.5383 29.44 99.6349 28.99 99.8283 28.59C100.022 28.19 100.288 27.8467 100.628 27.56C100.975 27.2733 101.385 27.0533 101.858 26.9C102.338 26.7467 102.862 26.67 103.428 26.67C104.308 26.67 105.065 26.8533 105.698 27.22H108.518ZM112.148 28.79C112.474 28.1233 112.868 27.6 113.328 27.22C113.788 26.84 114.341 26.65 114.988 26.65C115.208 26.65 115.414 26.6767 115.608 26.73C115.808 26.7767 115.981 26.85 116.128 26.95L115.998 28.42C115.951 28.6 115.841 28.69 115.668 28.69C115.574 28.69 115.434 28.6733 115.248 28.64C115.061 28.6 114.861 28.58 114.648 28.58C114.334 28.58 114.058 28.6267 113.818 28.72C113.578 28.8067 113.361 28.94 113.168 29.12C112.981 29.2933 112.814 29.51 112.668 29.77C112.521 30.0233 112.384 30.3133 112.258 30.64V37H110.308V26.84H111.428C111.641 26.84 111.784 26.88 111.858 26.96C111.938 27.0333 111.994 27.1667 112.028 27.36L112.148 28.79ZM122.935 32.49C122.142 32.5167 121.469 32.58 120.915 32.68C120.362 32.7733 119.912 32.9 119.565 33.06C119.219 33.22 118.969 33.41 118.815 33.63C118.662 33.8433 118.585 34.0833 118.585 34.35C118.585 34.6033 118.625 34.8233 118.705 35.01C118.792 35.19 118.905 35.34 119.045 35.46C119.192 35.5733 119.362 35.6567 119.555 35.71C119.749 35.7633 119.959 35.79 120.185 35.79C120.485 35.79 120.759 35.76 121.005 35.7C121.259 35.64 121.495 35.5567 121.715 35.45C121.935 35.3367 122.145 35.2 122.345 35.04C122.545 34.88 122.742 34.6967 122.935 34.49V32.49ZM117.215 28.26C117.782 27.72 118.395 27.3167 119.055 27.05C119.722 26.7833 120.452 26.65 121.245 26.65C121.825 26.65 122.339 26.7467 122.785 26.94C123.232 27.1267 123.609 27.39 123.915 27.73C124.222 28.07 124.452 28.4767 124.605 28.95C124.765 29.4233 124.845 29.9467 124.845 30.52V37H123.975C123.782 37 123.635 36.97 123.535 36.91C123.435 36.8433 123.355 36.7233 123.295 36.55L123.085 35.66C122.825 35.9 122.569 36.1133 122.315 36.3C122.062 36.48 121.795 36.6367 121.515 36.77C121.242 36.8967 120.949 36.9933 120.635 37.06C120.322 37.1267 119.975 37.16 119.595 37.16C119.195 37.16 118.819 37.1067 118.465 37C118.119 36.8867 117.815 36.7167 117.555 36.49C117.295 36.2633 117.089 35.98 116.935 35.64C116.789 35.3 116.715 34.9033 116.715 34.45C116.715 34.05 116.822 33.6667 117.035 33.3C117.255 32.9267 117.609 32.5933 118.095 32.3C118.589 32.0067 119.229 31.7667 120.015 31.58C120.809 31.3933 121.782 31.2867 122.935 31.26V30.52C122.935 29.7533 122.772 29.18 122.445 28.8C122.119 28.42 121.639 28.23 121.005 28.23C120.579 28.23 120.219 28.2833 119.925 28.39C119.639 28.4967 119.389 28.6167 119.175 28.75C118.969 28.8767 118.785 28.9933 118.625 29.1C118.472 29.2067 118.312 29.26 118.145 29.26C118.012 29.26 117.895 29.2233 117.795 29.15C117.702 29.0767 117.625 28.99 117.565 28.89L117.215 28.26ZM127.456 37V26.84H128.626C128.899 26.84 129.069 26.97 129.136 27.23L129.276 28.2C129.649 27.7533 130.063 27.39 130.516 27.11C130.976 26.8233 131.513 26.68 132.126 26.68C132.799 26.68 133.346 26.8667 133.766 27.24C134.186 27.6067 134.493 28.1067 134.686 28.74C134.833 28.38 135.023 28.07 135.256 27.81C135.489 27.55 135.749 27.3367 136.036 27.17C136.323 27.0033 136.626 26.88 136.946 26.8C137.273 26.72 137.603 26.68 137.936 26.68C138.476 26.68 138.956 26.7667 139.376 26.94C139.803 27.1067 140.163 27.3533 140.456 27.68C140.749 28.0067 140.973 28.41 141.126 28.89C141.279 29.37 141.356 29.9167 141.356 30.53V37H139.396V30.53C139.396 29.77 139.229 29.1967 138.896 28.81C138.569 28.4233 138.089 28.23 137.456 28.23C137.176 28.23 136.909 28.28 136.656 28.38C136.403 28.4733 136.179 28.6167 135.986 28.81C135.799 29.0033 135.649 29.2433 135.536 29.53C135.429 29.8167 135.376 30.15 135.376 30.53V37H133.416V30.53C133.416 29.7433 133.259 29.1633 132.946 28.79C132.633 28.4167 132.173 28.23 131.566 28.23C131.146 28.23 130.756 28.34 130.396 28.56C130.036 28.78 129.706 29.08 129.406 29.46V37H127.456ZM156.658 26.84V37H154.708V32.77C153.835 32.9967 153.018 33.1367 152.258 33.19C151.498 33.2367 150.835 33.17 150.268 32.99C149.701 32.8033 149.255 32.4867 148.928 32.04C148.608 31.5867 148.448 30.9733 148.448 30.2V26.84H150.408V29.9C150.408 30.3667 150.498 30.74 150.678 31.02C150.858 31.2933 151.128 31.4867 151.488 31.6C151.848 31.7067 152.295 31.74 152.828 31.7C153.368 31.6533 153.995 31.55 154.708 31.39V26.84H156.658ZM164.85 32.49C164.056 32.5167 163.383 32.58 162.83 32.68C162.276 32.7733 161.826 32.9 161.48 33.06C161.133 33.22 160.883 33.41 160.73 33.63C160.576 33.8433 160.5 34.0833 160.5 34.35C160.5 34.6033 160.54 34.8233 160.62 35.01C160.706 35.19 160.82 35.34 160.96 35.46C161.106 35.5733 161.276 35.6567 161.47 35.71C161.663 35.7633 161.873 35.79 162.1 35.79C162.4 35.79 162.673 35.76 162.92 35.7C163.173 35.64 163.41 35.5567 163.63 35.45C163.85 35.3367 164.06 35.2 164.26 35.04C164.46 34.88 164.656 34.6967 164.85 34.49V32.49ZM159.13 28.26C159.696 27.72 160.31 27.3167 160.97 27.05C161.636 26.7833 162.366 26.65 163.16 26.65C163.74 26.65 164.253 26.7467 164.7 26.94C165.146 27.1267 165.523 27.39 165.83 27.73C166.136 28.07 166.366 28.4767 166.52 28.95C166.68 29.4233 166.76 29.9467 166.76 30.52V37H165.89C165.696 37 165.55 36.97 165.45 36.91C165.35 36.8433 165.27 36.7233 165.21 36.55L165 35.66C164.74 35.9 164.483 36.1133 164.23 36.3C163.976 36.48 163.71 36.6367 163.43 36.77C163.156 36.8967 162.863 36.9933 162.55 37.06C162.236 37.1267 161.89 37.16 161.51 37.16C161.11 37.16 160.733 37.1067 160.38 37C160.033 36.8867 159.73 36.7167 159.47 36.49C159.21 36.2633 159.003 35.98 158.85 35.64C158.703 35.3 158.63 34.9033 158.63 34.45C158.63 34.05 158.736 33.6667 158.95 33.3C159.17 32.9267 159.523 32.5933 160.01 32.3C160.503 32.0067 161.143 31.7667 161.93 31.58C162.723 31.3933 163.696 31.2867 164.85 31.26V30.52C164.85 29.7533 164.686 29.18 164.36 28.8C164.033 28.42 163.553 28.23 162.92 28.23C162.493 28.23 162.133 28.2833 161.84 28.39C161.553 28.4967 161.303 28.6167 161.09 28.75C160.883 28.8767 160.7 28.9933 160.54 29.1C160.386 29.2067 160.226 29.26 160.06 29.26C159.926 29.26 159.81 29.2233 159.71 29.15C159.616 29.0767 159.54 28.99 159.48 28.89L159.13 28.26ZM177.646 28.32H173.816V37H171.856V28.32H168.026V26.84H177.646V28.32Z" fill="#61FFD9"/>
<defs>
<clipPath id="clip0">
<rect width="24" height="24" fill="white" transform="translate(27 18)"/>
</clipPath>
</defs>
</svg>
